<svg xmlns="http://www.w3.org/2000/svg" viewBox="0 0 198.51 198.57"><defs><style>.cls-1{fill:#fff;}</style></defs><title>fe</title><g id="katman_2" data-name="katman 2"><g id="katman_3" data-name="katman 3"><path class="cls-1" d="M189.32,57.52c-.62-1.36-1.27-2.72-2-4.07a100.1,100.1,0,0,0-11.06-16.86C115.74,65,43.68,73.84,2.66,76.59A98.81,98.81,0,0,0,7,135.89c53.23-17.36,138.34-47.86,181.93-78Z"/><path class="cls-1" d="M53.45,11.22a98.86,98.86,0,0,0-43,43.69C35.06,47.32,90.28,28.43,123.56,3A98.91,98.91,0,0,0,53.45,11.22Z"/><path class="cls-1" d="M186.64,146.11A297.08,297.08,0,0,0,85.43,197.47h0s0,.07,0,.11a99.17,99.17,0,0,0,101.33-51.42Z"/><path class="cls-1" d="M197.62,86.88,50,185.23a.91.91,0,0,0,0,.17A100,100,0,0,0,69.52,194l0,0-.07,0c22.06-19.83,67.19-54.92,126-72l.42-.15a99.29,99.29,0,0,0,1.83-34.92Z"/><path class="cls-1" d="M35.71,174.49C124.57,123.61,69,125.7,16.66,154l-.09.11a98.54,98.54,0,0,0,18.3,20.69A5.61,5.61,0,0,1,35.71,174.49Z"/></g></g></svg>