<?xml version="1.0" encoding="UTF-8" standalone="no"?>
<svg
   xmlns:dc="http://purl.org/dc/elements/1.1/"
   xmlns:cc="http://creativecommons.org/ns#"
   xmlns:rdf="http://www.w3.org/1999/02/22-rdf-syntax-ns#"
   xmlns:svg="http://www.w3.org/2000/svg"
   xmlns="http://www.w3.org/2000/svg"
   xmlns:xlink="http://www.w3.org/1999/xlink"
   xmlns:sodipodi="http://sodipodi.sourceforge.net/DTD/sodipodi-0.dtd"
   xmlns:inkscape="http://www.inkscape.org/namespaces/inkscape"
   id="svg8"
   xml:space="preserve"
   enable-background="new 0 0 23 23"
   viewBox="0 0 23 23"
   height="23px"
   width="23px"
   y="0px"
   x="0px"
   version="1.1"
   sodipodi:docname="lxde.svg"
   inkscape:export-filename="/home/yutyo/git/meros.mercode.org/os.mercode.org/assets/lxde.png"
   inkscape:export-xdpi="1252.174"
   inkscape:export-ydpi="1252.174"
   inkscape:version="0.92.4 5da689c313, 2019-01-14"><sodipodi:namedview
     pagecolor="#ffffff"
     bordercolor="#666666"
     borderopacity="1"
     objecttolerance="10"
     gridtolerance="10"
     guidetolerance="10"
     inkscape:pageopacity="0"
     inkscape:pageshadow="2"
     inkscape:window-width="1326"
     inkscape:window-height="718"
     id="namedview6"
     showgrid="false"
     inkscape:zoom="10.326145"
     inkscape:cx="7.5082908"
     inkscape:cy="9.8777114"
     inkscape:window-x="40"
     inkscape:window-y="25"
     inkscape:window-maximized="1"
     inkscape:current-layer="svg8" /><metadata
     id="metadata14"><rdf:RDF><cc:Work
         rdf:about=""><dc:format>image/svg+xml</dc:format><dc:type
           rdf:resource="http://purl.org/dc/dcmitype/StillImage" /><dc:title></dc:title></cc:Work></rdf:RDF></metadata><defs
     id="defs12"><linearGradient
       inkscape:collect="always"
       id="linearGradient828"><stop
         style="stop-color:#ff1d11;stop-opacity:1"
         offset="0"
         id="stop824" /><stop
         style="stop-color:#ffa206;stop-opacity:1"
         offset="1"
         id="stop826" /></linearGradient><linearGradient
       inkscape:collect="always"
       xlink:href="#linearGradient828"
       id="linearGradient1010"
       x1="0.14349554"
       y1="0.096971087"
       x2="22.711115"
       y2="22.856504"
       gradientUnits="userSpaceOnUse"
       gradientTransform="matrix(1.0042728,0,0,1.0042728,-1.9934489e-4,-0.09766214)" /></defs><path
     style="fill:url(#linearGradient1010);fill-opacity:1;fill-rule:nonzero;stroke:none;stroke-width:0.56904536"
     inkscape:connector-curvature="0"
     d="M 17.102497,8.8809787 C 15.705519,7.2583854 14.449853,6.210477 12.59007,8.9406928 11.478554,10.563292 4.8360472,19.87211 3.6173681,21.354354 3.261726,21.78395 3.0540303,22.080781 2.7837394,22.258118 c 0,-0.588923 4.5901934,-8.072198 5.8714673,-10.239135 1.5449243,-2.6041218 1.4965553,-2.4523922 1.3116212,-2.4523922 -0.2627056,0 -0.7928567,0.3964027 -1.6037235,1.2849962 -1.4747437,1.618794 -5.845866,7.653024 -6.1493436,7.561038 0.1033671,-0.437186 3.527046,-5.837934 5.0786164,-8.072199 C 8.6295996,8.4143612 8.1184205,8.2654763 7.3520871,8.455139 4.0848846,9.2593315 0.17278857,11.196771 0.04665398,11.12564 0.09496593,11.026075 13.216913,1.5313764 14.972379,1.3492932 c 0.203905,-0.021795 0.633523,-0.39639697 1.400767,-0.71123843 0.833628,-0.3366643 1.393182,-0.61452912 1.533543,-0.52632715 -0.611712,0.87815086 -0.929416,1.05548818 -0.937007,1.33713708 -0.0076,0.4627932 -0.166918,1.2110253 -0.344267,1.4518965 3.393337,2.3262576 4.716339,10.2505278 5.682737,16.6290018 0.229514,1.511635 0.444801,2.652474 0.499805,3.326742 -0.285462,-0.759613 -2.9969,-10.831836 -5.709296,-13.9765115 m 0,0"
     id="path4337-0" /></svg>