<?xml version="1.0" encoding="UTF-8" standalone="no"?>
<svg
   xmlns:dc="http://purl.org/dc/elements/1.1/"
   xmlns:cc="http://creativecommons.org/ns#"
   xmlns:rdf="http://www.w3.org/1999/02/22-rdf-syntax-ns#"
   xmlns:svg="http://www.w3.org/2000/svg"
   xmlns="http://www.w3.org/2000/svg"
   xmlns:xlink="http://www.w3.org/1999/xlink"
   xmlns:sodipodi="http://sodipodi.sourceforge.net/DTD/sodipodi-0.dtd"
   xmlns:inkscape="http://www.inkscape.org/namespaces/inkscape"
   id="svg8"
   xml:space="preserve"
   enable-background="new 0 0 23 23"
   viewBox="0 0 23 23"
   height="23px"
   width="23px"
   y="0px"
   x="0px"
   version="1.1"
   sodipodi:docname="mate.svg"
   inkscape:export-filename="/home/yutyo/git/meros.mercode.org/os.mercode.org/assets/lxde.png"
   inkscape:export-xdpi="1252.174"
   inkscape:export-ydpi="1252.174"
   inkscape:version="0.92.4 5da689c313, 2019-01-14"><sodipodi:namedview
     pagecolor="#ffffff"
     bordercolor="#666666"
     borderopacity="1"
     objecttolerance="10"
     gridtolerance="10"
     guidetolerance="10"
     inkscape:pageopacity="0"
     inkscape:pageshadow="2"
     inkscape:window-width="1326"
     inkscape:window-height="718"
     id="namedview6"
     showgrid="false"
     inkscape:zoom="10.326145"
     inkscape:cx="7.5082908"
     inkscape:cy="9.8777114"
     inkscape:window-x="40"
     inkscape:window-y="25"
     inkscape:window-maximized="1"
     inkscape:current-layer="svg8" /><metadata
     id="metadata14"><rdf:RDF><cc:Work
         rdf:about=""><dc:format>image/svg+xml</dc:format><dc:type
           rdf:resource="http://purl.org/dc/dcmitype/StillImage" /><dc:title></dc:title></cc:Work></rdf:RDF></metadata><defs
     id="defs12"><linearGradient
       inkscape:collect="always"
       id="linearGradient828"><stop
         style="stop-color:#ff1d11;stop-opacity:1"
         offset="0"
         id="stop824" /><stop
         style="stop-color:#ffa206;stop-opacity:1"
         offset="1"
         id="stop826" /></linearGradient><linearGradient
       inkscape:collect="always"
       xlink:href="#linearGradient828"
       id="linearGradient970"
       x1="0.28305778"
       y1="0.33813095"
       x2="23.113564"
       y2="22.87084"
       gradientUnits="userSpaceOnUse" /><linearGradient
       inkscape:collect="always"
       xlink:href="#linearGradient828"
       id="linearGradient972"
       x1="0.28305778"
       y1="0.33813095"
       x2="23.113564"
       y2="22.87084"
       gradientUnits="userSpaceOnUse" /><linearGradient
       inkscape:collect="always"
       xlink:href="#linearGradient828"
       id="linearGradient974"
       x1="0.28305778"
       y1="0.33813095"
       x2="23.113564"
       y2="22.87084"
       gradientUnits="userSpaceOnUse" /></defs><path
     inkscape:connector-curvature="0"
     style="opacity:0.19444442;fill:none;stroke:#ffffff;stroke-width:0.53478873px;stroke-linecap:round;stroke-linejoin:miter;stroke-opacity:1"
     d="m 18.861457,4.4054176 c 0,0 2.749144,2.6928422 2.757907,6.8029694 0.0088,4.14556 -2.863981,6.944698 -2.863981,6.944698"
     id="path5667"
     sodipodi:nodetypes="czc" /><path
     inkscape:connector-curvature="0"
     style="opacity:0.18981479;fill:none;stroke:#ffffff;stroke-width:0.53478873px;stroke-linecap:round;stroke-linejoin:miter;stroke-opacity:1"
     d="m 15.042816,7.1691236 c 0,0 1.97154,1.337566 1.944678,4.1101284 -0.02652,2.737132 -1.944678,3.897534 -1.944678,3.897534"
     id="path5669"
     sodipodi:nodetypes="czc" /><path
     inkscape:connector-curvature="0"
     style="fill:url(#linearGradient970);fill-opacity:1;fill-rule:evenodd;stroke:none;stroke-width:0.53478867px;stroke-linecap:butt;stroke-linejoin:miter;stroke-opacity:1"
     d="M 0.29192192,4.3523734 11.863545,11.181769 0.28305779,18.016398 Z"
     id="path5070" /><path
     inkscape:connector-curvature="0"
     style="opacity:0.18055558;fill:none;stroke:none;stroke-width:0.53478867px;stroke-linecap:butt;stroke-linejoin:miter;stroke-opacity:1"
     d="M 0.83127182,5.3177283 10.736939,11.183114 0.82368531,17.007236 Z"
     id="path5665"
     sodipodi:nodetypes="cccc" /><path
     inkscape:connector-curvature="0"
     style="opacity:0.32407406;fill:none;stroke:#ffffff;stroke-width:0.53478873px;stroke-linecap:round;stroke-linejoin:miter;stroke-opacity:1"
     d="m 19.073774,4.1323245 c 0,0 2.90235,2.9220538 2.90235,7.0852295 0,4.198596 -2.90235,7.049802 -2.90235,7.049802"
     id="path5689"
     sodipodi:nodetypes="czc" /><path
     inkscape:connector-curvature="0"
     style="opacity:0.32407406;fill:none;stroke:#ffffff;stroke-width:0.53478873px;stroke-linecap:round;stroke-linejoin:miter;stroke-opacity:1"
     d="m 16.480957,7.2407976 c 0,0 1.486569,1.5393525 1.486569,3.8614494 0,2.286688 -1.344991,3.86145 -1.344991,3.86145"
     id="path5691"
     sodipodi:nodetypes="czc" /><path
     inkscape:connector-curvature="0"
     style="fill:url(#linearGradient974);fill-opacity:1;stroke:none;stroke-width:0.53478873;stroke-linecap:round;stroke-linejoin:round;stroke-miterlimit:4;stroke-dasharray:none;stroke-dashoffset:0;stroke-opacity:1"
     d="m 22.726199,11.249852 c 0,-6.0516703 -4.904013,-10.96316998 -10.946457,-10.96316998 -3.489075,0 -6.5851057,1.64562208 -8.5900443,4.19474928 L 4.5600939,5.3504632 C 6.2706169,3.2568924 8.884127,1.9244726 11.796455,1.9244726 c 5.147608,0 9.325378,4.1777699 9.325378,9.3253794 0,5.147609 -4.177769,9.325379 -9.325378,9.325379 -2.9039298,0 -5.5089372,-1.3261 -7.219649,-3.409279 l -1.3703961,0.869032 c 2.0054144,2.538574 5.0926832,4.178037 8.5733321,4.178037 6.042445,0 10.946457,-4.911499 10.946457,-10.963169 z"
     id="path5067" /><path
     inkscape:connector-curvature="0"
     style="fill:url(#linearGradient972);fill-opacity:1;stroke:none;stroke-width:0.53478873;stroke-linecap:round;stroke-linejoin:round;stroke-miterlimit:4;stroke-dasharray:none;stroke-dashoffset:0;stroke-opacity:1"
     d="m 18.481314,11.266564 c 0,-3.6992677 -3.002305,-6.7015719 -6.701572,-6.7015719 -1.9694936,0 -3.7370217,0.8518903 -4.9635079,2.2060038 L 8.2367667,7.6567397 C 9.1504544,6.7543442 10.399566,6.2027828 11.779742,6.2027828 c 2.795207,0 5.063781,2.283548 5.063781,5.0972052 0,2.813658 -2.268574,5.097206 -5.063781,5.097206 -1.405903,0 -2.6753068,-0.571826 -3.5931117,-1.504094 l -1.3703962,0.869032 c 1.2264862,1.354114 2.9940143,2.206003 4.9635079,2.206003 3.699268,0 6.701572,-3.002304 6.701572,-6.701571 z"
     id="path5648" /><path
     inkscape:connector-curvature="0"
     style="opacity:0.33333333;fill:none;stroke:none;stroke-width:0.53478885;stroke-linecap:round;stroke-linejoin:round;stroke-miterlimit:4;stroke-dasharray:none;stroke-dashoffset:0;stroke-opacity:1"
     d="m 4.0417787,18.135257 c 1.9041407,2.177534 4.4529311,3.509551 7.7293983,3.509551 5.733519,0 10.386809,-4.664427 10.386809,-10.411668 0,-5.7472415 -4.65329,-10.41166919 -10.386809,-10.41166919 -3.2931896,0 -5.7923531,1.34455029 -7.7291587,3.57639979"
     id="path5664"
     sodipodi:nodetypes="cscsc" /><path
     inkscape:connector-curvature="0"
     style="opacity:0.33333333;fill:none;stroke:none;stroke-width:0.53478873;stroke-linecap:round;stroke-linejoin:round;stroke-miterlimit:4;stroke-dasharray:none;stroke-dashoffset:0;stroke-opacity:1"
     d="m 7.6685537,15.879116 c 1.1575037,1.015301 2.316256,1.520806 4.0777643,1.520806 3.404064,0 6.166782,-2.755231 6.166782,-6.15007 0,-3.3948393 -2.762718,-6.1500709 -6.166782,-6.1500709 -1.7700045,0 -2.9694959,0.6459087 -4.0944764,1.6712148"
     id="path5677"
     sodipodi:nodetypes="cscsc" /></svg>