<?xml version="1.0" encoding="UTF-8" standalone="no"?>
<svg
   xmlns:dc="http://purl.org/dc/elements/1.1/"
   xmlns:cc="http://creativecommons.org/ns#"
   xmlns:rdf="http://www.w3.org/1999/02/22-rdf-syntax-ns#"
   xmlns:svg="http://www.w3.org/2000/svg"
   xmlns="http://www.w3.org/2000/svg"
   xmlns:xlink="http://www.w3.org/1999/xlink"
   xmlns:sodipodi="http://sodipodi.sourceforge.net/DTD/sodipodi-0.dtd"
   xmlns:inkscape="http://www.inkscape.org/namespaces/inkscape"
   id="svg8"
   xml:space="preserve"
   enable-background="new 0 0 23 23"
   viewBox="0 0 23 23"
   height="23px"
   width="23px"
   y="0px"
   x="0px"
   version="1.1"
   sodipodi:docname="xfce.svg"
   inkscape:export-filename="/home/yutyo/git/meros.mercode.org/os.mercode.org/assets/lxde.png"
   inkscape:export-xdpi="1252.174"
   inkscape:export-ydpi="1252.174"
   inkscape:version="0.92.4 5da689c313, 2019-01-14"><sodipodi:namedview
     pagecolor="#ffffff"
     bordercolor="#666666"
     borderopacity="1"
     objecttolerance="10"
     gridtolerance="10"
     guidetolerance="10"
     inkscape:pageopacity="0"
     inkscape:pageshadow="2"
     inkscape:window-width="1326"
     inkscape:window-height="718"
     id="namedview6"
     showgrid="false"
     inkscape:zoom="10.326145"
     inkscape:cx="7.5082908"
     inkscape:cy="9.8777114"
     inkscape:window-x="40"
     inkscape:window-y="25"
     inkscape:window-maximized="1"
     inkscape:current-layer="svg8" /><metadata
     id="metadata14"><rdf:RDF><cc:Work
         rdf:about=""><dc:format>image/svg+xml</dc:format><dc:type
           rdf:resource="http://purl.org/dc/dcmitype/StillImage" /><dc:title></dc:title></cc:Work></rdf:RDF></metadata><defs
     id="defs12"><linearGradient
       inkscape:collect="always"
       id="linearGradient828"><stop
         style="stop-color:#ff1d11;stop-opacity:1"
         offset="0"
         id="stop824" /><stop
         style="stop-color:#ffa206;stop-opacity:1"
         offset="1"
         id="stop826" /></linearGradient><linearGradient
       inkscape:collect="always"
       xlink:href="#linearGradient828"
       id="linearGradient988"
       x1="0.12953691"
       y1="1.416504"
       x2="23.015596"
       y2="20.9785"
       gradientUnits="userSpaceOnUse" /></defs><path
     inkscape:connector-curvature="0"
     style="fill:url(#linearGradient988);stroke-width:2.05788207;fill-opacity:1"
     d="M 9.639266,1.37829 C 9.3264062,1.3849987 9.0796324,1.4785048 8.9929626,1.4779697 6.9902292,1.7562398 8.2696928,3.8554725 9.1183659,6.4586871 9.1908239,7.1250544 6.2726982,6.8478808 5.8164943,6.1500048 4.277874,2.4262776 3.8660625,2.840274 3.4370674,2.7319905 3.0261472,2.6481896 1.5982814,3.3671056 1.6299896,4.873474 1.6354018,5.3062059 1.9120909,8.4109321 1.9161638,9.0439006 0.11235491,12.107666 -0.78845764,15.140268 1.472433,18.27543 c 1.620085,2.122885 5.5131702,2.785222 8.0675402,2.739558 5.4361008,0.0021 8.0816138,-2.949423 11.1961658,-5.360141 2.378877,-1.945493 -0.06203,-4.397749 -0.636657,-4.73956 C 15.170781,7.7275362 12.056218,8.3918934 11.989754,7.886342 11.954885,7.3020055 11.974937,5.0197012 11.89007,4.442605 11.555555,1.7570784 10.327553,1.3622138 9.639266,1.37829 Z M 19.3953,2.0374554 C 18.385674,2.1942824 17.889455,7.9125882 18.340635,8.777019 19.889412,7.8035427 19.593334,3.485599 19.3953,2.0374554 Z m 3.498399,1.3247615 c -3.197063,4.2027722 -2.438508,3.4183759 -3.237947,6.7910111 0.305007,0.417336 4.440754,-6.2928188 3.237947,-6.7910111 z M 11.58821,9.4940623 c 0.90923,0 1.646306,0.7370757 1.646306,1.6463057 0,0.90923 -0.737076,1.646306 -1.646306,1.646306 -0.90923,0 -1.6463057,-0.737076 -1.6463057,-1.646306 0,-0.90923 0.7370757,-1.6463057 1.6463057,-1.6463057 z"
     id="path4" /></svg>